<?xml version="1.0" encoding="utf-8"?>
<!-- Generator: Adobe Illustrator 27.0.1, SVG Export Plug-In . SVG Version: 6.00 Build 0)  -->
<svg version="1.1" id="Camada_1" xmlns="http://www.w3.org/2000/svg" xmlns:xlink="http://www.w3.org/1999/xlink" x="0px" y="0px"
	 viewBox="0 0 400 74" style="enable-background:new 0 0 400 74;" xml:space="preserve">
<style type="text/css">
	.st0{fill:none;stroke:#FFFFFF;stroke-width:2;stroke-miterlimit:10;}
	.st1{fill:#E30613;stroke:#E30613;stroke-width:0.25;stroke-miterlimit:10;}
</style>
<path class="st0" d="M29.93,43.66v-6.21l19.36,0c-2.17,12.37-9.33,19.84-20.51,19.7c-13.37-0.7-19.54-7.51-20.51-18.23
	c0-11.13,7.53-19.51,20.51-19.04c6.85-0.16,12.46,3.29,17.59,8.1l-5.52,5.05c-2.38-2.28-8.68-6.62-12.08-6.39
	c-8.22-0.14-11.35,5.78-12.08,11.59c0.34,7.4,4.63,11.41,12.08,11.62c6.93-0.02,9.2-1.64,11.45-6.31L29.93,43.66z"/>
<polygon class="st0" points="77.82,19.87 77.82,27.69 65.22,27.69 65.22,33.94 79.38,33.94 79.38,41.64 65.22,41.64 65.22,49.55 
	80.94,49.55 80.94,57.16 54.5,57.16 54.5,19.87 "/>
<polygon class="st0" points="109.89,19.87 109.89,27.69 97.29,27.69 97.29,33.94 111.45,33.94 111.45,41.64 97.29,41.64 
	97.29,49.55 113.01,49.55 113.01,57.16 86.57,57.16 86.57,19.87 "/>
<polygon class="st0" points="118.11,19.87 118.11,57.16 126.99,57.16 126.99,46.33 130.53,43.27 134.07,46.19 145.04,57.15 
	157.19,57.15 157.19,54.1 139.42,38.51 157.19,22.87 157.19,19.54 144.69,19.54 128.87,33.63 127.17,35.33 127.17,19.54 
	118.11,19.54 "/>
<path class="st0" d="M264.21,56.75h8.74V26.9h9.02v-7.84h-42.68c-7.37,2.72-10.07,6.23-9.72,10.69c-0.32,4.81,1.71,8.36,8.05,11.04
	c1.08,0.18,3.05,1.15,6.52,0.76c1.99,0.31,3.42,1.14,3.96,3.12c-0.59,3.3-2.52,3.71-5.07,3.75c-3.42-0.68-5.42-1.36-6.45-2.71
	c-4.36,1.77-5.65,3.5-6.04,5.21c1.4,4.3,5.68,5.44,12.49,5.83c8.08-0.34,13.94-3.36,14.02-12.22c-0.8-8.87-6.32-10.6-17-12.28
	c-1.56-2.12-0.96-3.89,1.18-5.41l22.7,0L264.21,56.75z"/>
<path class="st0" d="M304.12,19.06c11.84,0.56,18.2,6.09,19.23,18.46c-0.66,12.17-6.11,18.67-19.23,19.23
	c-13.96-1.26-21-7.77-21.03-18.84C282.79,26.56,289.65,19.25,304.12,19.06z"/>
<path class="st0" d="M303.87,26.59c7.11,0.34,10.95,3.57,11.56,11c-0.39,7.31-3.69,11.29-11.56,11.63
	c-8.38-0.75-12.61-4.67-12.63-11.31C291.06,31.09,295.18,26.7,303.87,26.59z"/>
<path class="st0" d="M329.8,19.06v37.69h10.48V50.5h3.54l5.21,6.25h12.63v-3.05l-7.15-6.39c3.5-2.35,6.16-6.17,7.15-12.91
	c0.34-7.33-4.37-12.05-12.42-15.34H329.8z"/>
<path class="st0" d="M340.49,27.04v15.34l8.61,0c2.24-1.84,3.38-4.44,3.61-7.67c-0.45-3-2.25-5.53-5.21-7.67L340.49,27.04z"/>
<polygon class="st0" points="389.76,19.32 389.76,27.15 377.17,27.15 377.17,33.39 391.33,33.39 391.33,41.1 377.17,41.1 
	377.17,49.01 392.89,49.01 392.89,56.61 366.44,56.61 366.44,19.32 "/>
<path class="st1" d="M189.92,27.79c9.31,3.68,15.85,1.44,19.58-7.42c0.23,5.78-1.56,9.97-6.39,11.8
	C196.01,34.01,193.08,31.39,189.92,27.79z"/>
<path class="st1" d="M192.32,9.77c-8.1,6.88-10.29,14.86-4.63,21.5c9.79,7.64,17.19,5.08,23.42-4.89
	c-0.69,13.61-17.48,20.03-27.8,8.8C176.93,24.8,180.87,14.82,192.32,9.77z"/>
<path class="st1" d="M182.22,13.2c-6.48,4.39-10.89,10.81-8.8,23.58c-1.18-1.3-3.31-7.28-3.28-11.14
	c-7.11,19.76-0.85,34.56,23.48,36.96c26.13-1.05,32.11-20.04,19.57-42.84C218.35,55.21,162.13,50.11,182.22,13.2z"/>
</svg>
